<svg height="60.65223362134851" width="339.29897000718944" style="width:339.299px;height:60.6522px;position:absolute;top:50%;left:50%;transform:translate(-50%, -50%) scale(1);z-index:0;cursor:pointer">
  <defs id="SvgjsDefs1001"/>
  <g id="SvgjsG1007" featurekey="5TMTKC-0" transform="matrix(0.9782608695652174,0,0,0.9782608695652174,-3.9130434782608696,-18.586896813434105)" fill="#ffffff">
    <g xmlns="http://www.w3.org/2000/svg" transform="translate(0,-952.36218)">
      <path style="text-indent:0;text-transform:none;direction:ltr;block-progression:tb;baseline-shift:baseline;color:;enable-background:accumulate" d="m 10,971.36215 c -3.2894,0 -6,2.71059 -6,6 l 0,44.00005 c 0,3.2894 2.7106,6 6,6 l 49.2188,0 c 1.824,3.5616 5.517,6 9.7812,6 l 16,0 c 6.0594,0 11,-4.9406 11,-11 0,-4.3547 -2.4514,-8.4307 -6.25,-10.3126 -0.2105,-1.8403 -0.8209,-3.5611 -1.75,-5.0625 l 0,-29.62495 c 0,-3.28941 -2.7106,-6 -6,-6 l -72,0 z m 0,4 72,0 c 1.1426,0 2,0.8574 2,2 l 0,25.65625 c -1.7479,-1.0502 -3.8016,-1.6562 -6,-1.6562 -0.758,0 -1.5046,0.081 -2.2188,0.2187 l -6.4374,-5.71875 C 68.681,995.26942 67.607,995.20143 66.875,995.7059 l -14.75,10.1562 -18.8438,-16.0312 c -0.9382,-0.63265 -1.8123,-0.53814 -2.5,-0.0625 L 8,1007.2996 8,977.36215 c 0,-1.1426 0.8574,-2 2,-2 z m 43,4 c -3.8423,0 -7,3.15769 -7,7 0,3.84231 3.1577,7 7,7 3.8423,0 7,-3.15769 7,-7 0,-3.84231 -3.1577,-7 -7,-7 z m 0,4 c 1.6805,0 3,1.31945 3,3 0,1.68055 -1.3195,3 -3,3 -1.6805,0 -3,-1.31945 -3,-3 0,-1.68055 1.3195,-3 3,-3 z m -21.0625,10.53125 18.7813,15.9687 c 0.6601,0.5542 1.6921,0.6078 2.4062,0.125 l 14.7188,-10.12495 3.8124,3.40625 c -2.8663,1.8803 -4.864,4.9798 -5.3437,8.5625 -4.754,1.2308 -8.3125,5.4222 -8.3125,10.5313 0,0.3367 0.033,0.6708 0.062,1 l -48.062,0 c -1.1426,0 -2,-0.8574 -2,-2 l 0,-9.0313 23.9375,-18.4375 z M 78,1005.3621 c 4.4419,0 8,3.558 8,8 a 2.0001999,2.0001999 0 0 0 1.3438,1.875 c 2.5693,0.8916 4.6562,4.0185 4.6562,7.1251 0,3.9126 -3.0874,7 -7,7 l -16,0 c -3.9126,0 -7,-3.0874 -7,-7 0,-3.6553 2.7099,-6.6525 6.2188,-7.0313 A 2.0001999,2.0001999 0 0 0 70,1013.3621 c 0,-4.442 3.5581,-8 8,-8 z" fill="#ffffff" fill-opacity="1" stroke="none" marker="none" visibility="visible" display="inline" overflow="visible"/>
    </g>
  </g>
  <g id="SvgjsG1008" featurekey="nameLeftFeature-0" transform="matrix(2.4861875964129734,0,0,2.4861875964129734,105.02762480717405,-0.0773425841489086)" fill="#ffffff">
    <path d="M2 10.26 c0 -3 1.8 -5 4.5 -5 s4.5 2 4.5 5 l-1 0 c0 -2.4 -1.4 -4.02 -3.5 -4.02 s-3.5 1.62 -3.5 4.02 l0 4.5 c0 2.4 1.4 4 3.5 4 c0.96 0 1.74 -0.36 2.34 -0.96 l0.76 0.74 c-0.8 0.76 -1.84 1.2 -3.1 1.2 c-2.7 0 -4.5 -1.98 -4.5 -4.98 l0 -4.5 z M6.5 7.74 c-0.5 0 -0.9 0.16 -1.26 0.46 l-0.74 -0.7 c0.56 -0.5 1.2 -0.74 2 -0.74 c1.8 0 3 1.4 3 3.5 l-1 0 c0 -1.5 -0.8 -2.52 -2 -2.52 z M6.5 17.259999999999998 c1.2 0 2 -1 2 -2.5 l1 0 c0 2.1 -1.2 3.48 -3 3.48 s-3 -1.38 -3 -3.48 l0 -4.5 c0 -0.96 0.24 -1.76 0.7 -2.36 l0.7 0.7 c-0.26 0.46 -0.4 1 -0.4 1.66 l0 4.5 c0 1.5 0.8 2.5 2 2.5 z M11 14.76 c0 1.38 -0.4 2.54 -1.06 3.4 l-0.74 -0.7 c0.5 -0.72 0.8 -1.62 0.8 -2.7 l1 0 z M22.5 18 l-7 0 l0 -12.5 l1 0 l0 11.5 l6 0 l0 1 z M17 5.5 l1 0 l0 11 l-1 0 l0 -11 z M22.5 19.5 l-7 0 l0 -1 l7 0 l0 1 z M36 14.76 c0 1.38 -0.4 2.58 -1.1 3.48 l-0.76 -0.68 c0.56 -0.7 0.86 -1.66 0.86 -2.8 l0 -4.5 c0 -2.4 -1.4 -4.02 -3.5 -4.02 s-3.5 1.62 -3.5 4.02 l0 4.5 c0 2.4 1.4 4 3.5 4 c0.9 0 1.7 -0.3 2.3 -0.86 l0.7 0.7 c-0.76 0.76 -1.8 1.14 -3 1.14 c-2.7 0 -4.5 -1.98 -4.5 -4.98 l0 -4.5 c0 -3 1.8 -5 4.5 -5 s4.5 2 4.5 5 l0 4.5 z M29.84 8.7 c-0.2 0.4 -0.34 0.96 -0.34 1.56 l0 4.5 c0 1.5 0.8 2.5 2 2.5 s2 -1 2 -2.5 l0 -4.5 c0 -1.5 -0.8 -2.52 -2 -2.52 c-0.54 0 -1 0.22 -1.3 0.56 l-0.74 -0.7 c0.48 -0.54 1.2 -0.84 2.04 -0.84 c1.8 0 3 1.4 3 3.5 l0 4.5 c0 2.1 -1.2 3.48 -3 3.48 s-3 -1.38 -3 -3.48 l0 -4.5 c0 -0.9 0.2 -1.7 0.6 -2.3 z M41.26 14.76 c0 2.4 1.38 4 3.48 4 c0.9 0 1.7 -0.3 2.26 -0.86 l0.74 0.76 c-0.74 0.7 -1.8 1.08 -3 1.08 c-2.7 0 -4.5 -1.98 -4.5 -4.98 l0 -9.26 l1.02 0 l0 9.26 z M42.76 14.76 c0 1.5 0.78 2.5 1.98 2.5 s2 -1 2 -2.5 l0 -9.26 l1 0 l0 9.26 c0 2.1 -1.2 3.48 -3 3.48 s-3 -1.38 -3 -3.48 l0 -9.26 l1.02 0 l0 9.26 z M49.24 14.76 c0 1.44 -0.4 2.64 -1.14 3.48 l-0.76 -0.68 c0.6 -0.7 0.9 -1.66 0.9 -2.8 l0 -9.26 l1 0 l0 9.26 z"/>
  </g>
  <g id="SvgjsG1009" featurekey="nameRightFeature-0" transform="matrix(2.319587560449554,0,0,2.319587560449554,234.3608248791009,2.0051543883150327)" fill="#ffffff">
    <path d="M6.74 5 c3 0 5 2.2 5 5.5 l0 4 c0 3.3 -2 5.5 -5 5.5 l-4.74 0 l0 -15 l4.74 0 z M11.24 10.5 c0 -3 -1.8 -5 -4.5 -5 l-4.24 0 l0 12.5 l4.24 0 c1.8 0 3 -1.4 3 -3.5 l0 -4 c0 -2.1 -1.2 -3.5 -3 -3.5 l-2.4 0 l1.02 1 l1.38 0 c1.2 0 2 1 2 2.5 l0 4 c0 1.5 -0.8 2.5 -2 2.5 l-3.24 0 l0 -10.5 l3.24 0 c2.1 0 3.5 1.6 3.5 4 l0 4 c0 1.1 -0.3 2 -0.8 2.7 l0.76 0.7 c0.64 -0.86 1.04 -2 1.04 -3.4 l0 -4 z M4 16.5 l1 0 l0 -8.1 l-1 -1.04 l0 9.14 z M6.74 16.5 c0.9 0 1.5 -0.8 1.5 -2 l0 -4 c0 -1.2 -0.6 -2 -1.5 -2 l-1.24 0 l0 8 l1.24 0 z M6.74 19.5 c1.26 0 2.3 -0.44 3.12 -1.2 l-0.76 -0.74 c-0.6 0.6 -1.4 0.94 -2.36 0.94 l-4.24 0 l0 1 l4.24 0 z M20.240000000000002 5 c3 0 5 2 5 5 s-2 5 -5 5 l-1.5 0 l0 5 l-3.5 0 l0 -15 l5 0 z M20.240000000000002 13 c1.8 0 3 -1.2 3 -3 s-1.2 -3 -3 -3 l-2.66 0 l1.06 1 l1.6 0 c1.2 0 2 0.8 2 2 s-0.8 2 -2 2 l-3.5 0 l0 -5.5 l3.5 0 c2.1 0 3.5 1.4 3.5 3.5 c0 0.96 -0.3 1.76 -0.8 2.36 l0.76 0.7 c0.64 -0.76 1.04 -1.8 1.04 -3.06 c0 -2.7 -1.8 -4.5 -4.5 -4.5 l-4.5 0 l0 14 l1 0 l0 -6.5 l3.5 0 z M17.240000000000002 11.5 l1 0 l0 -3.16 l-1 -0.98 l0 4.14 z M20.240000000000002 11.5 c0.9 0 1.5 -0.6 1.5 -1.5 s-0.6 -1.5 -1.5 -1.5 l-1.5 0 l0 3 l1.5 0 z M20.240000000000002 14.5 c1.24 0 2.3 -0.4 3.1 -1.06 l-0.76 -0.74 c-0.6 0.5 -1.4 0.8 -2.34 0.8 l-2.66 0 l1.06 1 l1.6 0 z M18.240000000000002 19.5 l0 -4.64 l-1 -1 l0 5.64 l1 0 z M31.740000000000002 5 l0 15 l-3.5 0 l0 -15 l3.5 0 z M28.740000000000002 19.5 l1 0 l0 -14 l-1 0 l0 14 z M30.240000000000002 19.5 l1 0 l0 -14 l-1 0 l0 14 z M41.74 10.26 c0 -1.2 -0.6 -2 -1.5 -2 s-1.5 0.8 -1.5 2 l0 4.5 c0 1.2 0.6 1.98 1.5 1.98 s1.5 -0.78 1.5 -1.98 l0 -0.5 l3.5 0 l0 0.5 c0 3.3 -2 5.5 -5 5.5 s-5 -2.2 -5 -5.5 l0 -4.5 c0 -3.3 2 -5.52 5 -5.52 s5 2.22 5 5.52 l0 0.48 l-3.5 0 l0 -0.48 z M35.74 14.76 c0 3 1.8 4.98 4.5 4.98 c1.26 0 2.3 -0.44 3.1 -1.2 l-0.76 -0.74 c-0.6 0.6 -1.38 0.96 -2.34 0.96 c-2.1 0 -3.5 -1.6 -3.5 -4 l0 -4.5 c0 -2.4 1.4 -4.02 3.5 -4.02 s3.5 1.62 3.5 4.02 l1 0 c0 -3 -1.8 -5 -4.5 -5 s-4.5 2 -4.5 5 l0 4.5 z M40.24 7.74 c1.2 0 2 1.02 2 2.52 l1 0 c0 -2.1 -1.2 -3.5 -3 -3.5 c-0.8 0 -1.44 0.24 -2 0.74 l0.74 0.7 c0.36 -0.3 0.76 -0.46 1.26 -0.46 z M40.24 17.259999999999998 c-1.2 0 -2 -1 -2 -2.5 l0 -4.5 c0 -0.66 0.14 -1.2 0.4 -1.66 l-0.7 -0.7 c-0.46 0.6 -0.7 1.4 -0.7 2.36 l0 4.5 c0 2.1 1.2 3.48 3 3.48 s3 -1.38 3 -3.48 l-1 0 c0 1.5 -0.8 2.5 -2 2.5 z M43.74 14.76 c0 1.08 -0.3 1.98 -0.8 2.7 l0.74 0.7 c0.66 -0.86 1.06 -2.02 1.06 -3.4 l-1 0 z"/>
  </g>
</svg>
